<svg width="52" height="52" viewBox="0 0 52 52" fill="none" xmlns="http://www.w3.org/2000/svg">
<g filter="url(#filter0_d_775_1440)">
<path d="M44.625 19.5L41 15.8775V7C41 5.625 39.875 4.5 38.5 4.5H36C34.625 4.5 33.5 5.625 33.5 7V8.3825L28.5 3.3875C27.8175 2.7425 27.1925 2 26 2C24.8075 2 24.1825 2.7425 23.5 3.3875L7.375 19.5C6.595 20.3125 6 20.905 6 22C6 23.4075 7.08 24.5 8.5 24.5H11V39.5C11 40.875 12.125 42 13.5 42H18.5C19.8807 42 21 40.8807 21 39.5V29.5C21 28.125 22.125 27 23.5 27H28.5C29.875 27 31 28.125 31 29.5V39.5C31 40.8807 30.8693 42 32.25 42H38.5C39.875 42 41 40.875 41 39.5V24.5H43.5C44.92 24.5 46 23.4075 46 22C46 20.905 45.405 20.3125 44.625 19.5Z" stroke="#26396C" stroke-width="3" stroke-linejoin="round" shape-rendering="crispEdges"/>
</g>
<defs>
<filter id="filter0_d_775_1440" x="0.5" y="0.5" width="51" height="51" filterUnits="userSpaceOnUse" color-interpolation-filters="sRGB">
<feFlood flood-opacity="0" result="BackgroundImageFix"/>
<feColorMatrix in="SourceAlpha" type="matrix" values="0 0 0 0 0 0 0 0 0 0 0 0 0 0 0 0 0 0 127 0" result="hardAlpha"/>
<feOffset dy="4"/>
<feGaussianBlur stdDeviation="2"/>
<feComposite in2="hardAlpha" operator="out"/>
<feColorMatrix type="matrix" values="0 0 0 0 0 0 0 0 0 0 0 0 0 0 0 0 0 0 0.25 0"/>
<feBlend mode="normal" in2="BackgroundImageFix" result="effect1_dropShadow_775_1440"/>
<feBlend mode="normal" in="SourceGraphic" in2="effect1_dropShadow_775_1440" result="shape"/>
</filter>
</defs>
</svg>
