<svg id="Layer_1" data-name="Layer 1" xmlns="http://www.w3.org/2000/svg" viewBox="0 0 2048 2048"><defs><style>.cls-1,.cls-4{fill:#26396c;}.cls-2{fill:#1b85bd;}.cls-3{fill:#26386b;}.cls-4{font-size:57.75px;font-family:Lato-Regular, Lato;letter-spacing:0.07em;}.cls-5{letter-spacing:0.04em;}.cls-6{letter-spacing:0.07em;}.cls-7{letter-spacing:0.05em;}.cls-8{letter-spacing:0.07em;}</style></defs><path class="cls-1" d="M452.07,862.7l-76.93,78.11c-40.89-41.52-109.4-38.32-146,9.63a98.3,98.3,0,0,0-19.47,48.37c-3.51,30.77,6.7,60.34,27.83,81.79l50.45,51.23L211,1209.94l-50.43-51.23c-39.89-40.49-61.41-94.66-60.34-152.09a211,211,0,0,1,53.05-136.16c39.65-44.44,94.47-69.06,153-69.06C361.38,801.4,413.12,823.16,452.07,862.7Z"/><path class="cls-1" d="M239.32,1240l75.54,75.53L793.44,837a42.41,42.41,0,0,0,0-60l-45.56-45.56Z"/><path class="cls-2" d="M685.74,1100c80.57,81.82,83.1,215.27,3,297.5a204.16,204.16,0,0,1-292.25.74l-81.62-82.88,76.91-78.11,81.62,82.88c40.91,41.52,109.45,38.31,146.06-9.66a98.46,98.46,0,0,0,19.45-48.36c3.51-30.75-6.72-60.32-27.83-81.78L375.14,940.81c-80.36-81.62-80.49-214.27-.26-295.74l.26-.28a204.15,204.15,0,0,1,291.5,0L717.1,696l-76.91,78.11L589.73,722.9a96.3,96.3,0,0,0-137.66,0l-.29.28c-37.78,38.4-37.68,101,.29,139.52Z"/><path class="cls-1" d="M1015.15,1143.48a85.46,85.46,0,0,0-85.34-85.37H797v50H929.81a35.35,35.35,0,0,1,0,70.7H846.15v-40.47h-50v211.2h133.7A85.26,85.26,0,0,0,990,1203.85,85.41,85.41,0,0,0,1015.15,1143.48Zm-85.34,156.06H846.15v-70.67h83.66a35.34,35.34,0,0,1,0,70.67Z"/><path class="cls-1" d="M1405.17,1058.12v291.44h-50.05V1108.14h-9.27a1.46,1.46,0,0,0-1.47.88l-54.45,94.32a50.58,50.58,0,0,1-44.61,25.52h-15.69a50.53,50.53,0,0,1-44.71-25.73l-.08-.13-54.26-94a1.51,1.51,0,0,0-1.48-.85h-59.32v-50h59.32a50.54,50.54,0,0,1,44.79,25.86l54.27,94a1.44,1.44,0,0,0,1.47.86h15.69a1.45,1.45,0,0,0,1.48-.86l54.26-94a50.53,50.53,0,0,1,44.79-25.86Z"/><rect class="cls-1" x="1069.78" y="1138.35" width="50.05" height="211.21"/><rect class="cls-1" x="1459.87" y="1058.12" width="204.74" height="50.05"/><rect class="cls-1" x="1459.87" y="1299.52" width="204.74" height="50.05"/><rect class="cls-1" x="1459.87" y="1178.82" width="131.2" height="50.05"/><path class="cls-3" d="M1936,1241.24a108.37,108.37,0,0,1-146.85,101.26,108.24,108.24,0,0,1-69.83-101.26v-11.65h50v11.65a58.25,58.25,0,0,0,46.53,57.11,57.4,57.4,0,0,0,11.8,1.19,58.36,58.36,0,0,0,58.31-58.3c0-38.09-23.51-52.3-53.23-70.29-17.19-10.41-35-21.16-48.63-37.67-14.86-17.92-22.91-40.55-24.64-69.13l-.75-12.35h50l.7,10.9c1.48,22.76,8.52,37,24.29,49.14,9,6.91,18.56,12.71,27.8,18.33,18.33,11.08,37.28,22.55,52.51,43C1928.62,1192.7,1936,1215.58,1936,1241.24Z"/><text class="cls-4" transform="translate(796.1 1448.9)">BEN MOHAMED ÉTUDES E<tspan class="cls-5" x="805.8" y="0">T</tspan><tspan class="cls-6" x="842.22" y="0" xml:space="preserve"> SE</tspan><tspan class="cls-7" x="933.81" y="0">R</tspan><tspan class="cls-8" x="972.96" y="0">VICES</tspan></text></svg>