<svg width="92" height="105" viewBox="0 0 92 105" fill="none" xmlns="http://www.w3.org/2000/svg">
<path d="M45.63 104.423C45.0028 104.423 44.3757 104.258 43.8102 103.935L1.81971 79.6519C0.695672 79.0031 0 77.7982 0 76.4972V27.9272C0 26.6262 0.692245 25.4213 1.81971 24.7725L43.8102 0.489167C44.9343 -0.163056 46.3222 -0.163056 47.4462 0.489167L89.4368 24.7725C90.5608 25.4213 91.2565 26.6262 91.2565 27.9272V76.4972C91.2565 77.7982 90.5642 79.0031 89.4368 79.6519L47.4462 103.935C46.8842 104.261 46.2571 104.423 45.6265 104.423H45.63ZM7.27543 74.3929L45.63 96.5719L83.9845 74.3929V30.0314L45.63 7.84899L7.27543 30.0314V74.3929ZM45.63 72.0449C34.7151 72.0449 25.8324 63.1472 25.8324 52.2105C25.8324 41.2737 34.7151 32.3794 45.63 32.3794C56.5448 32.3794 65.4309 41.2771 65.4309 52.2105C65.4309 63.1438 56.5482 72.0449 45.63 72.0449ZM45.63 39.6672C38.7246 39.6672 33.1044 45.2969 33.1044 52.2139C33.1044 59.1309 38.7246 64.7606 45.63 64.7606C52.5353 64.7606 58.1555 59.1309 58.1555 52.2139C58.1555 45.2969 52.5353 39.6672 45.63 39.6672Z" fill="#26396C"/>
</svg>
