<svg id="visual" viewBox="0 0 960 540" width="960" height="540" xmlns="http://www.w3.org/2000/svg" xmlns:xlink="http://www.w3.org/1999/xlink" version="1.1"><path d="M0 133L14.5 121.2C29 109.3 58 85.7 87.2 73.7C116.3 61.7 145.7 61.3 174.8 76.3C204 91.3 233 121.7 262 126.2C291 130.7 320 109.3 349 95.3C378 81.3 407 74.7 436.2 79.2C465.3 83.7 494.7 99.3 523.8 104.7C553 110 582 105 611 106.5C640 108 669 116 698 116C727 116 756 108 785.2 95.8C814.3 83.7 843.7 67.3 872.8 73.8C902 80.3 931 109.7 945.5 124.3L960 139L960 0L945.5 0C931 0 902 0 872.8 0C843.7 0 814.3 0 785.2 0C756 0 727 0 698 0C669 0 640 0 611 0C582 0 553 0 523.8 0C494.7 0 465.3 0 436.2 0C407 0 378 0 349 0C320 0 291 0 262 0C233 0 204 0 174.8 0C145.7 0 116.3 0 87.2 0C58 0 29 0 14.5 0L0 0Z" fill="#0066FF" stroke-linecap="round" stroke-linejoin="miter"></path></svg>