<svg id="visual" viewBox="0 0 960 540" width="960" height="540" xmlns="http://www.w3.org/2000/svg" xmlns:xlink="http://www.w3.org/1999/xlink" version="1.1"><path d="M0 283L32 280.3C64 277.7 128 272.3 192 287.5C256 302.7 320 338.3 384 342.5C448 346.7 512 319.3 576 309.8C640 300.3 704 308.7 768 305.8C832 303 896 289 928 282L960 275L960 541L928 541C896 541 832 541 768 541C704 541 640 541 576 541C512 541 448 541 384 541C320 541 256 541 192 541C128 541 64 541 32 541L0 541Z" fill="#0066FF" stroke-linecap="round" stroke-linejoin="miter"></path></svg>